# xmcd
#
# Track frame offsets:
#	150
#	13312
#	24250
#	36600
#	52362
#	68587
#	82912
#	95000
#	110825
#	123512
#	141275
#	152325
#	163312
#
# Disc length: 2349 seconds
#
# Revision: 0
# Processed by: cddbd v1.5PL3 Copyright (c) Steve Scherf et al.
# Submitted via: dBpowerAMP V4.0
#
DISCID=b7092b0d
DTITLE=Blind John Davis - Blind John Davis
DYEAR=1994
DGENRE=Blues
TTITLE0=I Had A Dream
TTITLE1=I Know The Baby Loves Me
TTITLE2=Hey, Hey Mama
TTITLE3=The Woman I  Love
TTITLE4=I Heard An Echo
TTITLE5=The Trick's Done Turned On You
TTITLE6=Don't Lie To Me
TTITLE7=Harlem Blues
TTITLE8=When The Blues Birds Come Out To Sing
TTITLE9=Pretty Blues For Listening
TTITLE10=When I've Been Drinking
TTITLE11=Bartender's Bounce
TTITLE12=Penny Pinching Blues
EXTD=
EXTT0=
EXTT1=
EXTT2=
EXTT3=
EXTT4=
EXTT5=
EXTT6=
EXTT7=
EXTT8=
EXTT9=
EXTT10=
EXTT11=
EXTT12=
PLAYORDER=
